<mxfile host="app.diagrams.net" modified="2023-03-01T00:41:10.330Z" agent="5.0 (Windows NT 10.0; Win64; x64) AppleWebKit/537.36 (KHTML, like Gecko) Chrome/110.0.0.0 Safari/537.36 Edg/110.0.1587.57" etag="WVu-zvnTBLyAiZ7rEpV-" version="20.8.23" type="github">
  <diagram name="Página-1" id="8mxdFlRDZDrxUTBWCtGI">
    <mxGraphModel dx="1244" dy="573" grid="1" gridSize="10" guides="1" tooltips="1" connect="1" arrows="1" fold="1" page="1" pageScale="1" pageWidth="827" pageHeight="1169" math="0" shadow="0">
      <root>
        <mxCell id="0" />
        <mxCell id="1" parent="0" />
        <mxCell id="73HmylsB1X1meUz8wY-U-1" style="edgeStyle=orthogonalEdgeStyle;rounded=0;orthogonalLoop=1;jettySize=auto;html=1;exitX=0.5;exitY=1;exitDx=0;exitDy=0;exitPerimeter=0;entryX=0.5;entryY=0;entryDx=0;entryDy=0;" edge="1" parent="1" target="73HmylsB1X1meUz8wY-U-3">
          <mxGeometry relative="1" as="geometry">
            <mxPoint x="210" y="150" as="sourcePoint" />
          </mxGeometry>
        </mxCell>
        <mxCell id="73HmylsB1X1meUz8wY-U-2" style="edgeStyle=orthogonalEdgeStyle;rounded=0;orthogonalLoop=1;jettySize=auto;html=1;exitX=1;exitY=0.5;exitDx=0;exitDy=0;" edge="1" parent="1" source="73HmylsB1X1meUz8wY-U-3" target="73HmylsB1X1meUz8wY-U-5">
          <mxGeometry relative="1" as="geometry" />
        </mxCell>
        <mxCell id="73HmylsB1X1meUz8wY-U-3" value="calcular:real" style="rounded=1;whiteSpace=wrap;html=1;absoluteArcSize=1;arcSize=14;strokeWidth=2;" vertex="1" parent="1">
          <mxGeometry x="160" y="190" width="100" height="100" as="geometry" />
        </mxCell>
        <mxCell id="73HmylsB1X1meUz8wY-U-4" style="edgeStyle=orthogonalEdgeStyle;rounded=0;orthogonalLoop=1;jettySize=auto;html=1;exitX=1;exitY=0.5;exitDx=0;exitDy=0;" edge="1" parent="1" source="73HmylsB1X1meUz8wY-U-5" target="73HmylsB1X1meUz8wY-U-6">
          <mxGeometry relative="1" as="geometry" />
        </mxCell>
        <mxCell id="73HmylsB1X1meUz8wY-U-5" value="calcular&amp;lt;- (3+2)*6/(2-1)" style="rounded=1;whiteSpace=wrap;html=1;absoluteArcSize=1;arcSize=14;strokeWidth=2;" vertex="1" parent="1">
          <mxGeometry x="320" y="190" width="100" height="100" as="geometry" />
        </mxCell>
        <mxCell id="73HmylsB1X1meUz8wY-U-6" value="FimAlgoritmo" style="strokeWidth=2;html=1;shape=mxgraph.flowchart.start_1;whiteSpace=wrap;" vertex="1" parent="1">
          <mxGeometry x="480" y="210" width="100" height="60" as="geometry" />
        </mxCell>
        <mxCell id="73HmylsB1X1meUz8wY-U-7" value="Início" style="strokeWidth=2;html=1;shape=mxgraph.flowchart.start_2;whiteSpace=wrap;" vertex="1" parent="1">
          <mxGeometry x="162" y="50" width="100" height="100" as="geometry" />
        </mxCell>
      </root>
    </mxGraphModel>
  </diagram>
</mxfile>
